<svg width="1440" height="821" viewBox="0 0 1440 821" fill="none" xmlns="http://www.w3.org/2000/svg">
<g clip-path="url(#clip0_2008_10586)">
<path d="M1194.67 570.826C1185.98 605.128 1161.67 633.789 1125.07 656.233C1088.46 678.679 1039.59 694.887 981.849 704.283C866.369 723.073 715.52 714.595 556.684 674.372C397.848 634.15 261.146 569.81 168.527 498.322C122.218 462.578 86.9491 425.062 65.4386 387.899C43.9297 350.739 36.1923 313.964 44.8789 279.661C53.5655 245.359 77.8735 216.698 114.476 194.254C151.081 171.808 199.955 155.6 257.695 146.204C373.175 127.414 524.024 135.892 682.86 176.115C841.696 216.337 978.399 280.677 1071.02 352.165C1117.33 387.909 1152.6 425.425 1174.11 462.588C1195.61 499.748 1203.35 536.523 1194.67 570.826Z" stroke="url(#paint0_linear_2008_10586)"/>
<path d="M1455.27 636.821C1442.63 686.733 1407.27 728.418 1354.05 761.049C1300.83 793.681 1229.79 817.238 1145.88 830.892C978.06 858.199 758.855 845.877 528.054 787.431C297.254 728.984 98.6036 635.491 -35.994 531.602C-103.293 479.656 -154.56 425.127 -185.833 371.099C-217.104 317.073 -228.367 263.58 -215.728 213.667C-203.088 163.755 -167.722 122.07 -114.507 89.4391C-61.289 56.8069 9.75163 33.2496 93.663 19.5959C261.484 -7.71131 480.689 4.61065 711.49 63.0571C942.29 121.504 1140.94 214.997 1275.54 318.886C1342.84 370.832 1394.1 425.361 1425.38 479.389C1456.65 533.414 1467.91 586.908 1455.27 636.821Z" stroke="url(#paint1_linear_2008_10586)"/>
<path d="M1772.38 717.123C1754.93 786.03 1706.11 843.564 1632.68 888.589C1559.25 933.617 1461.23 966.116 1345.48 984.951C1113.97 1022.62 811.585 1005.62 493.217 925.001C174.849 844.379 -99.1792 715.413 -284.858 572.096C-377.698 500.437 -448.431 425.205 -491.582 350.655C-534.732 276.107 -550.287 202.272 -532.837 133.365C-515.388 64.4573 -466.566 6.92394 -393.136 -38.1017C-319.704 -83.129 -221.69 -115.628 -105.933 -134.464C125.577 -172.134 427.959 -155.135 746.327 -74.5132C1064.7 6.10825 1338.72 135.075 1524.4 278.392C1617.24 350.051 1687.97 425.283 1731.13 499.833C1774.28 574.38 1789.83 648.216 1772.38 717.123Z" stroke="url(#paint2_linear_2008_10586)"/>
<path fill-rule="evenodd" clip-rule="evenodd" d="M205.87 145.309C205.234 143.563 202.766 143.563 202.13 145.309L199.244 153.244L191.309 156.13C189.563 156.766 189.563 159.234 191.309 159.87L199.244 162.756L202.13 170.69C202.766 172.436 205.234 172.436 205.87 170.69L208.756 162.756L216.69 159.87C218.436 159.234 218.436 156.766 216.69 156.13L208.756 153.244L205.87 145.309Z" fill="#CCCCCC"/>
<path fill-rule="evenodd" clip-rule="evenodd" d="M136.004 628.216C135.322 626.595 132.678 626.595 131.996 628.216L128.904 635.584L120.403 638.264C118.532 638.854 118.532 641.146 120.403 641.736L128.904 644.416L131.996 651.784C132.678 653.405 135.322 653.405 136.004 651.784L139.096 644.416L147.597 641.736C149.468 641.146 149.468 638.854 147.597 638.264L139.096 635.584L136.004 628.216Z" fill="#CCCCCC"/>
<path fill-rule="evenodd" clip-rule="evenodd" d="M1113.17 203.169C1112.6 201.61 1110.4 201.61 1109.83 203.169L1107.25 210.253L1100.17 212.83C1098.61 213.398 1098.61 215.602 1100.17 216.17L1107.25 218.747L1109.83 225.831C1110.4 227.39 1112.6 227.39 1113.17 225.831L1115.75 218.747L1122.83 216.17C1124.39 215.602 1124.39 213.398 1122.83 212.83L1115.75 210.253L1113.17 203.169Z" fill="#CCCCCC"/>
<path fill-rule="evenodd" clip-rule="evenodd" d="M1432.2 199.842C1431.79 198.719 1430.21 198.719 1429.8 199.842L1427.94 204.942L1422.84 206.798C1421.72 207.207 1421.72 208.793 1422.84 209.202L1427.94 211.058L1429.8 216.158C1430.21 217.281 1431.79 217.281 1432.2 216.158L1434.06 211.058L1439.16 209.202C1440.28 208.793 1440.28 207.207 1439.16 206.798L1434.06 204.942L1432.2 199.842Z" fill="#CCCCCC"/>
<path fill-rule="evenodd" clip-rule="evenodd" d="M1196.87 507.309C1196.23 505.563 1193.77 505.563 1193.13 507.309L1190.24 515.244L1182.31 518.13C1180.56 518.766 1180.56 521.234 1182.31 521.87L1190.24 524.756L1193.13 532.69C1193.77 534.436 1196.23 534.436 1196.87 532.69L1199.76 524.756L1207.69 521.87C1209.44 521.234 1209.44 518.766 1207.69 518.13L1199.76 515.244L1196.87 507.309Z" fill="#CCCCCC"/>
<path fill-rule="evenodd" clip-rule="evenodd" d="M97.8695 412.309C97.2335 410.563 94.7655 410.563 94.1295 412.309L91.2435 420.244L83.3095 423.13C81.5635 423.766 81.5635 426.234 83.3095 426.87L91.2435 429.756L94.1295 437.69C94.7655 439.436 97.2335 439.436 97.8695 437.69L100.756 429.756L108.69 426.87C110.436 426.234 110.436 423.766 108.69 423.13L100.756 420.244L97.8695 412.309Z" fill="#CCCCCC"/>
</g>
<defs>
<linearGradient id="paint0_linear_2008_10586" x1="84.696" y1="259.795" x2="1080.76" y2="673.025" gradientUnits="userSpaceOnUse">
<stop stop-color="#484848"/>
<stop offset="0.491388" stop-color="#484848" stop-opacity="0.36"/>
<stop offset="1" stop-color="#484848"/>
</linearGradient>
<linearGradient id="paint1_linear_2008_10586" x1="-157.657" y1="184.859" x2="1289.55" y2="785.253" gradientUnits="userSpaceOnUse">
<stop stop-color="#484848"/>
<stop offset="0.491388" stop-color="#484848" stop-opacity="0.36"/>
<stop offset="1" stop-color="#484848"/>
</linearGradient>
<linearGradient id="paint2_linear_2008_10586" x1="-452.555" y1="93.6755" x2="1543.61" y2="921.813" gradientUnits="userSpaceOnUse">
<stop stop-color="#484848"/>
<stop offset="0.491388" stop-color="#484848" stop-opacity="0.36"/>
<stop offset="1" stop-color="#484848"/>
</linearGradient>
<clipPath id="clip0_2008_10586">
<rect width="1440" height="821" fill="white"/>
</clipPath>
</defs>
</svg>
